<svg xmlns="http://www.w3.org/2000/svg" viewBox="0 0 192 192">
  <rect width="192" height="192" rx="40" fill="#0e5f66"/>
  <path d="M96 22c11 18 30 29 30 50 0 18-13 31-30 31S66 90 66 73c0-12 7-23 18-34-2 13 6 23 16 27-2-16 2-28-4-44Z" fill="#f1b64b"/>
  <path d="M48 120h96c-4 22-24 38-48 38s-44-16-48-38Z" fill="#0b3e43"/>
  <path d="M47 121c17-11 33-15 49-15s32 4 49 15" fill="none" stroke="#d9f0f0" stroke-width="6" stroke-linecap="round"/>
  <path d="M96 55v54M83 70h26" stroke="#fff" stroke-width="10" stroke-linecap="round"/>
</svg>
