<svg xmlns="http://www.w3.org/2000/svg" viewBox="0 0 512 512">
  <rect width="512" height="512" rx="110" fill="#0e5f66"/>
  <path d="M256 60c29 47 81 76 81 132 0 47-34 81-81 81s-81-34-81-78c0-32 19-60 48-88-5 35 16 61 43 72-6-41 5-73-10-119Z" fill="#f1b64b"/>
  <path d="M127 320h258c-11 59-64 102-129 102S138 379 127 320Z" fill="#0b3e43"/>
  <path d="M126 322c45-29 88-39 130-39s85 10 130 39" fill="none" stroke="#d9f0f0" stroke-width="16" stroke-linecap="round"/>
  <path d="M256 146v146M221 187h70" stroke="#fff" stroke-width="24" stroke-linecap="round"/>
</svg>
